<mxfile host="app.diagrams.net" modified="2024-02-15T16:17:47.072Z" agent="Mozilla/5.0 (Windows NT 10.0; Win64; x64) AppleWebKit/537.36 (KHTML, like Gecko) Chrome/121.0.0.0 Safari/537.36 Edg/121.0.0.0" version="23.1.4" etag="plYi_W6_-uSFRL2Ujte7" type="github">
  <diagram name="Page-1" id="9HDPHnx0xmZ_q3As2a4E">
    <mxGraphModel>
      <root>
        <mxCell id="0" />
        <mxCell id="1" parent="0" />
      </root>
    </mxGraphModel>
  </diagram>
</mxfile>
